HIERARCHY
ROOT Hips
{
	OFFSET 0.00000 0.00000 0.00000
	CHANNELS 6 Xposition Yposition Zposition Yrotation Zrotation Xrotation 
	JOINT Lumbar
	{
		OFFSET 0 0 0
		CHANNELS 3 Zrotation Xrotation Yrotation
		JOINT Neck
		{
			OFFSET 0.00 0.2701 0.00
			CHANNELS 3 Zrotation Xrotation Yrotation
			End Site
			{
				OFFSET 0.00 0.1379 0.00
			}
		}
		JOINT RightShoulder
		{
			OFFSET 0.0119 0.2289 0.1181
			CHANNELS 3 Zrotation Xrotation Yrotation
			JOINT RightElbow
			{
				OFFSET 0.00 -0.1475 0.00
				CHANNELS 2 Zrotation Yrotation
				JOINT RightWrist
				{
					OFFSET 0.00 -0.1605 0.00
					CHANNELS 2 Zrotation Xrotation
					End Site
					{
						OFFSET 0.0040 -0.1068 0.0006
					}
				}
			}
		}
		JOINT LeftShoulder
		{
			OFFSET 0.0119 0.2289 -0.1181
			CHANNELS 3 Zrotation Xrotation Yrotation
			JOINT LeftElbow
			{
				OFFSET 0.00 -0.1475 0.00
				CHANNELS 2 Zrotation Yrotation
				JOINT LeftWrist
				{
					OFFSET 0.00 -0.1605 0.00
					CHANNELS 2 Zrotation Xrotation
					End Site
					{
						OFFSET 0.0040 -0.1068 -0.0006
					}
				}
			}
		}
	}
	JOINT RightHip
	{
		OFFSET 0.0316 -0.0424 0.0458
		CHANNELS 3 Zrotation Xrotation Yrotation
		JOINT RightKnee
		{
			OFFSET 0.00 -0.2438 0.00
			CHANNELS 1 Zrotation
			JOINT RightAnkle
			{
				OFFSET 0.00 -0.2449 0.00
				CHANNELS 3 Zrotation Xrotation Yrotation
				End Site
				{
					OFFSET 0.1237 -0.0542 0.0051
				}
			}
		}
	}
	JOINT LeftHip
	{
		OFFSET 0.0316 -0.0424 -0.0458
		CHANNELS 3 Zrotation Xrotation Yrotation
		JOINT LeftKnee
		{
			OFFSET 0.00 -0.2438 0.00
			CHANNELS 1 Zrotation
			JOINT LeftAnkle
			{
				OFFSET 0.00 -0.2449 0.00
				CHANNELS 3 Zrotation Xrotation Yrotation
				End Site
				{
					OFFSET 0.1237 -0.0542 -0.0051
				}
			}
		}
	}
}
MOTION
Frames: 33
Frame Time: 0.02
-1e-05 -1e-05 5e-05 -180.47191 -35.76308 -2.94967 43.62229 2.97712 -4.10143 -12.06411 -1.88503 -0.38681 90.16964 -96.631 64.17277 5.32623 104.88014 11.92806 2.36518 59.22505 98.55501 -64.17299 7.47809 -92.94613 12.62901 1.01699 40.38827 -3.71565 0.42847 -22.81924 -7.10452 -4.16056 -2.84808 43.68525 9.85365 0.33639 -27.85424 -6.72291 3.57884 2.52435
-5e-05 -1e-05 2e-05 -180.42242 -35.56308 -2.94075 43.42361 2.96553 -4.13253 -12.06278 -1.88773 -0.38816 89.96853 -96.63657 64.17246 5.3267 104.81608 11.93262 2.33928 59.46721 98.5326 -64.17263 7.44236 -92.98232 12.6686 0.99615 40.13297 -3.77084 0.11998 -22.77884 -7.09 -4.13126 -2.83011 43.4541 9.85928 0.34695 -27.82747 -6.72116 3.57689 2.52225
-8e-05 -1e-05 -0 -180.37315 -35.36396 -2.93186 43.22582 2.95399 -4.16349 -12.06145 -1.89043 -0.3895 89.76776 -96.64214 64.17214 5.32718 104.75212 11.93717 2.31343 59.70881 98.51025 -64.17227 7.40672 -93.01843 12.70808 0.97536 39.87879 -3.82586 -0.18757 -22.73862 -7.07551 -4.10204 -2.8122 43.22396 9.86478 0.35695 -27.80081 -6.71944 3.57501 2.5202
-0.00012 -1e-05 -3e-05 -180.32383 -35.16463 -2.92297 43.0278 2.94245 -4.19449 -12.06013 -1.89312 -0.39084 89.56722 -96.64769 64.17182 5.32766 104.68824 11.94172 2.28761 59.95025 98.4879 -64.1719 7.3711 -93.05452 12.74755 0.95458 39.62434 -3.88088 -0.4951 -22.69836 -7.06102 -4.07282 -2.79428 42.99359 9.87037 0.36739 -27.77412 -6.7177 3.57308 2.51811
-0.00016 -2e-05 -5e-05 -180.27427 -34.96427 -2.91403 42.82877 2.93086 -4.22565 -12.0588 -1.89581 -0.39218 89.36644 -96.65324 64.17151 5.32814 104.6243 11.9463 2.26176 60.19219 98.46549 -64.17154 7.3354 -93.09067 12.78711 0.93377 39.36862 -3.93607 -0.8036 -22.65789 -7.0465 -4.04354 -2.77632 42.76204 9.87617 0.37859 -27.7473 -6.71592 3.57104 2.51596
-0.00019 -2e-05 -8e-05 -180.22562 -34.76776 -2.90527 42.63359 2.91942 -4.25617 -12.05749 -1.89851 -0.39351 89.16569 -96.65883 64.17119 5.32861 104.56032 11.9508 2.23592 60.43303 98.44327 -64.17118 7.29987 -93.12669 12.82644 0.91303 39.11769 -3.99075 -1.10915 -22.61819 -7.03208 -4.01444 -2.75849 42.53487 9.88102 0.38607 -27.72098 -6.71434 3.56948 2.51411
-0.00023 -2e-05 -0.00011 -180.1752 -34.56382 -2.89616 42.43094 2.9077 -4.28794 -12.05613 -1.9012 -0.39486 88.96511 -96.66434 64.17087 5.32909 104.49647 11.95544 2.21009 60.67584 98.42068 -64.17081 7.26404 -93.16296 12.86619 0.89215 38.85748 -4.04638 -1.42022 -22.57702 -7.01747 -3.985 -2.74041 42.29925 9.88775 0.40099 -27.6937 -6.71236 3.56698 2.51167
-0.00026 -2e-05 -0.00013 -180.12638 -34.36657 -2.88737 42.23503 2.89623 -4.31858 -12.05482 -1.90389 -0.3962 88.76439 -96.66992 64.17056 5.32957 104.43252 11.95995 2.18425 60.91678 98.39845 -64.17045 7.2285 -93.19897 12.90554 0.87141 38.60564 -4.10115 -1.72632 -22.53717 -7.00304 -3.95587 -2.72256 42.07124 9.89278 0.40914 -27.66728 -6.71074 3.56533 2.50976
-0.0003 -2e-05 -0.00016 -180.07963 -34.17808 -2.87897 42.04792 2.88508 -4.34773 -12.05357 -1.90659 -0.39752 88.5633 -96.67562 64.17025 5.33003 104.36835 11.9643 2.15838 61.15578 98.3766 -64.1701 7.19326 -93.23476 12.94446 0.8508 38.36475 -4.15481 -2.02599 -22.49904 -6.98879 -3.92714 -2.70502 41.85321 9.89561 0.40858 -27.642 -6.70958 3.5648 2.50855
-0.00033 -3e-05 -0.00018 -180.02131 -33.94094 -2.86834 41.81188 2.87213 -4.38516 -12.05198 -1.90928 -0.39894 88.36371 -96.6807 64.1699 5.33054 104.30511 11.96957 2.13261 61.407 98.35238 -64.1697 7.15609 -93.27213 12.98604 0.82934 38.06304 -4.2147 -2.36161 -22.45133 -6.97341 -3.89614 -2.68574 41.57979 9.91073 0.4568 -27.61041 -6.70583 3.55806 2.50346
-0.00037 -3e-05 -0.0002 -179.98717 -33.80533 -2.86239 41.67798 2.86297 -4.40532 -12.05109 -1.91198 -0.40013 88.16138 -96.68707 64.16964 5.33097 104.24014 11.97289 2.10666 61.63169 98.33325 -64.1694 7.12311 -93.30599 13.0219 0.80973 37.88823 -4.26154 -2.62203 -22.42361 -6.96044 -3.86994 -2.67012 41.42193 9.90015 0.40299 -27.592 -6.70749 3.56426 2.50646
-0.00041 -3e-05 -0.00022 -180.02212 -33.96007 -2.86963 41.83602 2.86422 -4.37611 -12.05238 -1.91475 -0.40068 87.94816 -96.69711 64.16958 5.33116 104.16865 11.97088 2.07999 61.78931 98.32764 -64.16934 7.1009 -93.3315 13.04276 0.79473 38.07655 -4.27143 -2.66901 -22.45326 -6.95405 -3.85692 -2.66477 41.59464 9.81625 0.05833 -27.61118 -6.72467 3.60775 2.5327
-0.00045 -4e-05 -0.00022 -180.08083 -34.21446 -2.88148 42.09433 2.86925 -4.32996 -12.05432 -1.91753 -0.401 87.733 -96.7084 64.16961 5.33128 104.09579 11.96691 2.05321 61.91924 98.32723 -64.16937 7.08302 -93.35328 13.05775 0.78169 38.38938 -4.26845 -2.6419 -22.5025 -6.95008 -3.8487 -2.66304 41.88071 9.70695 -0.38721 -27.64331 -6.74718 3.66395 2.56692
-0.00049 -4e-05 -0.00023 -180.12694 -34.41577 -2.891 42.29932 2.87253 -4.29284 -12.05581 -1.9203 -0.40141 87.52063 -96.71907 64.1696 5.33143 104.02468 11.96382 2.02657 62.0581 98.32478 -64.16935 7.06363 -93.37589 13.07496 0.76805 38.63573 -4.27207 -2.65317 -22.54117 -6.94504 -3.83829 -2.6595 42.1063 9.61124 -0.77894 -27.66861 -6.76675 3.71308 2.59679
-0.00053 -4e-05 -0.00024 -180.18086 -34.65071 -2.90158 42.53781 2.87602 -4.24996 -12.05799 -1.92314 -0.40184 87.29932 -96.73004 64.16959 5.33158 103.94865 11.96074 1.99939 62.2123 98.32103 -64.16935 7.04229 -93.40202 13.09404 0.75315 38.92478 -4.27238 -2.64393 -22.58699 -6.93989 -3.82798 -2.65667 42.37064 9.50733 -1.20271 -27.69801 -6.78839 3.76744 2.6296
-0.00057 -5e-05 -0.00024 -180.22397 -34.83854 -2.91098 42.7296 2.8799 -4.21518 -12.05886 -1.9258 -0.40219 87.09726 -96.7406 64.1696 5.33171 103.88273 11.95722 1.97349 62.32802 98.32114 -64.16935 7.02605 -93.42009 13.10786 0.74139 39.15355 -4.27667 -2.66045 -22.62246 -6.93552 -3.81851 -2.6532 42.58028 9.41389 -1.58588 -27.72183 -6.80715 3.81425 2.65833
-0.00062 -5e-05 -0.00024 -180.23299 -34.87795 -2.91659 42.77401 2.88437 -4.20592 -12.05615 -1.9281 -0.40231 86.93969 -96.75035 64.16959 5.33186 103.84353 11.95253 1.94952 62.34422 98.33135 -64.16935 7.02285 -93.41561 13.10851 0.73742 39.19297 -4.29381 -2.76096 -22.62553 -6.93309 -3.81104 -2.64746 42.61866 9.36105 -1.81121 -27.728 -6.81503 3.83413 2.6723
-0.00067 -5e-05 -0.00023 -180.23013 -34.86578 -2.92076 42.76722 2.88902 -4.20553 -12.05205 -1.93018 -0.40237 86.80343 -96.7595 64.16959 5.332 103.81485 11.94755 1.92717 62.32282 98.3451 -64.16935 7.0246 -93.40338 13.1041 0.73658 39.16649 -4.31557 -2.89072 -22.6174 -6.9313 -3.8041 -2.64088 42.59714 9.31888 -1.99507 -27.72799 -6.82007 3.84642 2.68209
-0.00071 -5e-05 -0.00022 -180.23155 -34.87269 -2.92516 42.77928 2.89325 -4.20182 -12.04846 -1.93228 -0.40249 86.6632 -96.76852 64.16959 5.33214 103.78233 11.943 1.9051 62.3185 98.35681 -64.16935 7.02407 -93.3955 13.10209 0.73459 39.16449 -4.3361 -3.01087 -22.61368 -6.92896 -3.79631 -2.63441 42.59744 9.26794 -2.21295 -27.73011 -6.82756 3.86427 2.69487
-0.00076 -5e-05 -0.00021 -180.2381 -34.89975 -2.93138 42.8117 2.89896 -4.19478 -12.04544 -1.93476 -0.40247 86.49809 -96.77934 64.16958 5.33231 103.74573 11.93718 1.87861 62.31265 98.37064 -64.16932 7.02389 -93.38403 13.09945 0.73161 39.18778 -4.35273 -3.1139 -22.6132 -6.92778 -3.79117 -2.62918 42.62242 9.23159 -2.37442 -27.73529 -6.83061 3.8741 2.7036
-0.00081 -5e-05 -0.0002 -180.23136 -34.87349 -2.93355 42.79049 2.90166 -4.19667 -12.04086 -1.93636 -0.40273 86.39074 -96.78619 64.16958 5.3324 103.72021 11.93391 1.86185 62.30216 98.3807 -64.16937 7.02404 -93.37824 13.09699 0.73132 39.14383 -4.37849 -3.25926 -22.60344 -6.92435 -3.78068 -2.62118 42.5829 9.16905 -2.63701 -27.73276 -6.84184 3.89812 2.71933
-0.00089 -5e-05 -0.00019 -180.18598 -34.69282 -2.92362 42.61371 2.89521 -4.22396 -12.03258 -1.93566 -0.40389 86.43076 -96.78282 64.16958 5.33233 103.7221 11.93792 1.87046 62.28234 98.38055 -64.16969 7.02446 -93.39016 13.09618 0.73846 38.90587 -4.43047 -3.52526 -22.56726 -6.91424 -3.7545 -2.60515 42.35655 9.02042 -3.23342 -27.70774 -6.87915 3.96788 2.75818
-0.00098 -5e-05 -0.00018 -180.12834 -34.46317 -2.90986 42.38765 2.88582 -4.25952 -12.02273 -1.93404 -0.40533 86.52966 -96.77536 64.16959 5.33218 103.73486 11.94442 1.88898 62.26061 98.37628 -64.17009 7.02502 -93.4081 13.09571 0.74804 38.60607 -4.49112 -3.83119 -22.52264 -6.90191 -3.72306 -2.58646 42.07081 8.84724 -3.92444 -27.67558 -6.92425 4.05126 2.80367
-0.00107 -6e-05 -0.00018 -180.07946 -34.26881 -2.89868 42.19718 2.87831 -4.28943 -12.01344 -1.93282 -0.40662 86.60589 -96.76934 64.1696 5.33204 103.74307 11.94978 1.90369 62.24334 98.37312 -64.17043 7.02503 -93.4232 13.0952 0.756 38.35047 -4.54643 -4.11206 -22.48418 -6.8908 -3.6945 -2.56935 41.82749 8.69284 -4.5422 -27.64845 -6.9639 4.12527 2.84422
-0.00115 -6e-05 -0.00017 -180.017 -34.01891 -2.88396 41.95058 2.8686 -4.32746 -12.00478 -1.93178 -0.40802 86.66483 -96.76502 64.16957 5.33197 103.7501 11.95547 1.91564 62.20858 98.37321 -64.17083 7.02688 -93.43834 13.09422 0.76626 38.02623 -4.60782 -4.42312 -22.43573 -6.8788 -3.66386 -2.55065 41.51845 8.50687 -5.28544 -27.61376 -7.01145 4.21242 2.89267
-0.00124 -7e-05 -0.00016 -179.97971 -33.8722 -2.87564 41.80825 2.86266 -4.35063 -11.99443 -1.93002 -0.40924 86.77448 -96.75625 64.16962 5.33179 103.76193 11.9607 1.93552 62.21155 98.36561 -64.17115 7.02534 -93.45508 13.09411 0.77222 37.82919 -4.65853 -4.6804 -22.40597 -6.86814 -3.63634 -2.53464 41.33114 8.38039 -5.79147 -27.59299 -7.04452 4.2756 2.92637
-0.00134 -8e-05 -0.00016 -180.01791 -34.03558 -2.88669 41.97934 2.86871 -4.32885 -11.97983 -1.92743 -0.40987 87.00057 -96.73572 64.16989 5.33114 103.78423 11.96704 1.97583 62.30919 98.33701 -64.1712 7.01065 -93.47362 13.09849 0.76621 38.01487 -4.67782 -4.77933 -22.43219 -6.86169 -3.61826 -2.52657 41.51013 8.42689 -5.60824 -27.61419 -7.03505 4.26847 2.91712
-0.00146 -9e-05 -0.00017 -180.08131 -34.30216 -2.90418 42.25466 2.87848 -4.29215 -11.96361 -1.92398 -0.41031 87.2768 -96.7109 64.17024 5.33061 103.81036 11.97221 2.02337 62.44737 98.30099 -64.17117 6.9934 -93.4938 13.1033 0.75571 38.3278 -4.68603 -4.82266 -22.47711 -6.85669 -3.6036 -2.52132 41.81091 8.53371 -5.18466 -27.64932 -7.01085 4.23683 2.89289
-0.00157 -9e-05 -0.00017 -180.13129 -34.51326 -2.91826 42.47388 2.88597 -4.2634 -11.94808 -1.92025 -0.41083 87.53661 -96.68841 64.17054 5.32992 103.83549 11.97609 2.06719 62.57317 98.26885 -64.17118 6.97949 -93.51401 13.10654 0.74693 38.57225 -4.69915 -4.89134 -22.51202 -6.85107 -3.5877 -2.5149 42.04617 8.61089 -4.87941 -27.67693 -6.9939 4.21708 2.87601
-0.00168 -0.0001 -0.00018 -180.18929 -34.75937 -2.93428 42.72884 2.89586 -4.22988 -11.9326 -1.91921 -0.41136 87.7736 -96.66436 64.17089 5.32889 103.86025 11.9881 2.11401 62.67156 98.23432 -64.17118 6.9556 -93.53117 13.11578 0.73954 38.86009 -4.71303 -4.96104 -22.55311 -6.84521 -3.57029 -2.50794 42.32284 8.69601 -4.54163 -27.70938 -6.97504 4.19503 2.85731
-0.00179 -0.00011 -0.00019 -180.23657 -34.95705 -2.94778 42.934 2.90163 -4.2028 -11.91678 -1.91251 -0.41183 88.06676 -96.64239 64.17116 5.32956 103.88355 11.98243 2.15515 62.83897 98.2032 -64.17117 6.95289 -93.55498 13.11242 0.72823 39.0878 -4.72265 -5.01493 -22.58578 -6.8402 -3.55688 -2.50279 42.54223 8.78001 -4.20999 -27.73508 -6.95636 4.17129 2.83848
-0.00191 -0.00012 -0.0002 -180.24967 -35.00236 -2.95334 42.98352 2.89542 -4.19574 -11.89935 -1.88943 -0.41211 88.52147 -96.62888 64.17121 5.32737 103.92709 11.93143 2.18707 63.16753 98.18206 -64.17111 7.00139 -93.59709 13.07549 0.70657 39.12631 -4.72267 -5.03785 -22.59167 -6.83729 -3.55401 -2.50213 42.58087 8.83925 -3.98373 -27.73942 -6.94344 4.15323 2.82524
-0.00202 -0.00012 -0.00023 -180.25102 -34.99481 -2.95607 42.97867 2.88489 -4.19582 -11.88191 -1.86089 -0.41235 89.02558 -96.61724 64.17118 5.32871 103.96401 11.86185 2.2111 63.56765 98.16495 -64.17104 7.07322 -93.64584 13.02547 0.68135 39.09927 -4.71881 -5.04662 -22.58837 -6.83516 -3.55504 -2.50318 42.55706 8.89642 -3.76704 -27.73645 -6.93091 4.13358 2.81202
